<?xml version="1.0" encoding="UTF-8"?>
<svg width="67px" height="92px" viewBox="0 0 67 92" version="1.1" xmlns="http://www.w3.org/2000/svg" xmlns:xlink="http://www.w3.org/1999/xlink">
    <!-- Generator: Sketch 50.2 (55047) - http://www.bohemiancoding.com/sketch -->
    <title>003-animal-2 copy</title>
    <desc>Created with Sketch.</desc>
    <defs></defs>
    <g id="Page-1" stroke="none" stroke-width="1" fill="none" fill-rule="evenodd">
        <g id="003-animal-2-copy">
            <path d="M53.7838927,11.7366342 C49.9813427,9.1650076 44.7507042,9.62308989 41.4821865,13.1767298 C36.4187905,11.2002195 30.764757,11.2037454 25.7113669,13.1768251 C21.5186798,8.61858698 14.2567366,9.24677057 10.8331741,14.3129302 C8.07105319,18.3970764 8.86838511,23.9547668 12.8017749,27.0842493 C11.3268014,31.9012129 11.5635138,37.1725423 13.5657537,41.8966887 C16.902979,49.7712825 24.683898,55.1837435 33.5966338,55.1826 C45.5858682,55.1834577 55.3412963,45.4275531 55.3397715,33.4395575 C55.3399621,31.2321478 55.0073831,29.0969716 54.391302,27.0847258 C59.483763,23.0332657 59.0756152,15.312573 53.7838927,11.7366342 Z M14.0539491,23.9135041 C11.3975102,21.0280717 12.0058724,16.5240563 15.1908166,14.3732518 C17.3976545,12.8824593 20.4216456,12.8768369 22.649639,14.6582787 C19.0391081,16.7700123 15.9873861,19.96096 14.0539491,23.9135041 Z M24.0509496,29.7272517 C24.0509496,28.8486333 24.7631833,28.1363044 25.641897,28.1363044 C26.5205154,28.1363044 27.2328443,28.8486333 27.2328443,29.7272517 C27.2328443,30.6058701 26.5205154,31.3181991 25.641897,31.3181991 C24.7631833,31.3181991 24.0509496,30.6058701 24.0509496,29.7272517 Z M35.1876764,47.6273392 L35.1876764,45.7403108 C36.138433,45.1900784 36.7786238,44.1627047 36.7786238,42.9852416 C36.7786238,41.2280048 35.3539659,39.8033469 33.5967291,39.8033469 C31.8393969,39.8033469 30.4148343,41.2280048 30.4148343,42.9852416 C30.4148343,44.1628 31.0549298,45.1901737 32.0057817,45.7405014 L32.0057817,47.6289592 C28.5545838,47.0647185 25.6434217,44.5891491 25.6419923,41.3943896 C25.645137,37.8728641 29.241469,35.030219 33.5968244,35.0306002 C37.9669504,35.0305049 41.5499411,37.8860148 41.5516564,41.3943896 C41.548607,44.5913409 38.6463073,47.0615737 35.1876764,47.6273392 Z M41.5515611,31.3181991 C40.6728474,31.3181991 39.9606138,30.6058701 39.9606138,29.7272517 C39.9606138,28.8486333 40.6728474,28.1363044 41.5515611,28.1363044 C42.4301796,28.1363044 43.1425085,28.8486333 43.1425085,29.7272517 C43.1425085,30.6058701 42.4302749,31.3181991 41.5515611,31.3181991 Z M44.5433426,14.6586598 C46.4111215,13.1648179 48.8635342,12.9167655 50.9223792,13.7868073 C54.9509686,15.4894403 56.1180445,20.6783396 53.1397949,23.9133135 C51.2462864,20.043676 48.2370659,16.8192797 44.5433426,14.6586598 Z" id="Shape" fill="#000000" fill-rule="nonzero"></path>
            <g id="logo-4" transform="translate(7.703833, 54.393728)"></g>
            <rect id="Rectangle" stroke="#000000" stroke-width="4" x="2" y="2" width="63" height="87.7456446"></rect>
            <text id="R-M" font-family="Chalkboard-Bold, Chalkboard" font-size="26" font-weight="bold" line-spacing="33" letter-spacing="0.612857163" fill="#000000">
                <tspan x="8" y="85">R </tspan>
                <tspan x="36.8058248" y="85" letter-spacing="0.569081664">M</tspan>
            </text>
        </g>
    </g>
</svg>