<svg width="160" height="258" viewBox="0 0 160 258" xmlns="http://www.w3.org/2000/svg"><title>hypercube/new copy</title><g fill="none" fill-rule="evenodd"><path d="M1 249h158V13H1v236zM11 257h137v-8H11v8zM1 13h158V3a2 2 0 0 0-2-2H3a2 2 0 0 0-2 2v10z" stroke="#8A9499" stroke-width="2" fill="#FFF"/><path d="M61 63h3v-6.5a1.5 1.5 0 0 0-3 0V63zM1 63v10h158V63H1zM1 13v10h158V13H1zM1 103v10h158v-10H1zM1 183h158v10H1zM1 143h158v10H1zM39 63h3v-7.8a.2.2 0 0 0-.2-.2h-2.6a.2.2 0 0 0-.2.2V63zM50 63h3v-2.8a.2.2 0 0 0-.2-.2h-2.6a.2.2 0 0 0-.2.2V63zM72 63h3v-4.8a.2.2 0 0 0-.2-.2h-2.6a.2.2 0 0 0-.2.2V63zM98 63h3v-7.8a.2.2 0 0 0-.2-.2h-2.6a.2.2 0 0 0-.2.2V63zM109 63h3v-7.8a.2.2 0 0 0-.2-.2h-2.6a.2.2 0 0 0-.2.2V63zM120 63h3v-4.8a.2.2 0 0 0-.2-.2h-2.6a.2.2 0 0 0-.2.2V63zM40 103h3v-6.5a1.5 1.5 0 0 0-3 0v6.5zM50 103h3v-7.8a.2.2 0 0 0-.2-.2h-2.6a.2.2 0 0 0-.2.2v7.8zM61 103h3v-9.8a.2.2 0 0 0-.2-.2h-2.6a.2.2 0 0 0-.2.2v9.8zM72 103h3v-4.8a.2.2 0 0 0-.2-.2h-2.6a.2.2 0 0 0-.2.2v4.8zM109 103h3v-4.8a.2.2 0 0 0-.2-.2h-2.6a.2.2 0 0 0-.2.2v4.8zM98 103h3V91.4a1.4 1.4 0 0 0-1.4-1.4h-.2a1.4 1.4 0 0 0-1.4 1.4V103zM1 215v34h158v-34H1z" stroke="#8A9499" stroke-width="2"/><path d="M131 234a2 2 0 1 1 0-4 2 2 0 0 1 0 4zm0-8a2 2 0 1 1 0-4 2 2 0 0 1 0 4zm0 16a2 2 0 1 1 0-4 2 2 0 0 1 0 4zm8-8a2 2 0 1 1 0-4 2 2 0 0 1 0 4zm-16 0a2 2 0 1 1 0-4 2 2 0 0 1 0 4zm3-5a2 2 0 1 1 0-4 2 2 0 0 1 0 4zm0 10a2 2 0 1 1 0-4 2 2 0 0 1 0 4zm10-10a2 2 0 1 1 0-4 2 2 0 0 1 0 4zm0 10a2 2 0 1 1 0-4 2 2 0 0 1 0 4zM105 234a2 2 0 1 1 0-4 2 2 0 0 1 0 4zm0-8a2 2 0 1 1 0-4 2 2 0 0 1 0 4zm0 16a2 2 0 1 1 0-4 2 2 0 0 1 0 4zm8-8a2 2 0 1 1 0-4 2 2 0 0 1 0 4zm-16 0a2 2 0 1 1 0-4 2 2 0 0 1 0 4zm3-5a2 2 0 1 1 0-4 2 2 0 0 1 0 4zm0 10a2 2 0 1 1 0-4 2 2 0 0 1 0 4zm10-10a2 2 0 1 1 0-4 2 2 0 0 1 0 4zm0 10a2 2 0 1 1 0-4 2 2 0 0 1 0 4z" fill="#8A9499"/><path d="M101 143h-3v-7.8c0-.11.09-.2.2-.2h2.6c.11 0 .2.09.2.2v7.8zM101 183h-3v-7.8c0-.11.09-.2.2-.2h2.6c.11 0 .2.09.2.2v7.8zM90 143h-3v-7.8c0-.11.09-.2.2-.2h2.6c.11 0 .2.09.2.2v7.8zM90 183h-3v-7.8c0-.11.09-.2.2-.2h2.6c.11 0 .2.09.2.2v7.8zM75 143h-3v-8.6a1.4 1.4 0 0 1 1.4-1.4h.2a1.4 1.4 0 0 1 1.4 1.4v8.6zM64 183h-3v-9.6a1.4 1.4 0 0 1 1.4-1.4h.2a1.4 1.4 0 0 1 1.4 1.4v9.6zM112 143h-3v-8.6a1.4 1.4 0 0 1 1.4-1.4h.2a1.4 1.4 0 0 1 1.4 1.4v8.6zM53 143h-3v-3.6a1.4 1.4 0 0 1 1.4-1.4h.2a1.4 1.4 0 0 1 1.4 1.4v3.6zM43 143h-3v-7.8c0-.11.09-.2.2-.2h2.6c.11 0 .2.09.2.2v7.8zM53 183h-3v-7.8c0-.11.09-.2.2-.2h2.6c.11 0 .2.09.2.2v7.8z" stroke="#8A9499" stroke-width="2"/><path d="M149 13v236h10V13h-10zM1 13v236h10V13H1z" stroke="#8A9499" stroke-width="2" fill="#FFF"/><g transform="translate(0 12)"><path d="M1 237h158V1H1v236zM25 19h110v200H25V19z" stroke="#8A9499" stroke-width="2" fill="#FFF"/><path d="M25 19v200h110V19H25z" stroke="#8A9499" stroke-width="2" fill-opacity=".701" fill="#E9F2F5"/><circle fill="#8A9499" cx="147.5" cy="119.5" r="5.5"/><g opacity=".804" stroke="#007AFF" stroke-linecap="round" stroke-linejoin="round" stroke-width="2"><path d="M80 47l19 11-19 11-19-11z"/><path d="M61 58l19 11v22L61 80zM80 69l19-11v22L80 91z"/><path d="M80 54l12 7v14l-12 7-12-7V61z"/><path d="M79.5 62l5.63 3.25v6.5L79.5 75l-5.63-3.25v-6.5z"/></g></g></g></svg>