<svg width="32" height="49" viewBox="0 0 32 49" xmlns="http://www.w3.org/2000/svg"><title>Group 5</title><defs><linearGradient x1="100%" y1="50%" x2="0%" y2="50%" id="a"><stop stop-opacity="0" offset="0%"/><stop offset="100%"/></linearGradient></defs><g fill="none" fill-rule="evenodd"><path stroke="#8A9499" stroke-width="2" fill="#FFF" d="M3 48h25v1H3z"/><path d="M.5 3.5h31V1a.5.5 0 0 0-.5-.5H1a.5.5 0 0 0-.5.5v2.5zM.5 3.5v43h31v-43H.5z" stroke="#8A9499" fill="#FFF"/><path stroke="#8A9499" fill="#FFF" d="M3.5 6.5h25v36h-25z"/><path d="M3 13h25v2H3v-2zm0 7h25v2H3v-2zm0 7h25v2H3v-2zm0 7h25v2H3v-2z" fill="#8A9499"/><path fill="url(#a)" opacity=".15" d="M26 47V1h5v46z"/><path d="M.5 46.537l25.106 1.923V1.54L.5 3.463v43.074zm4-39.007l17-1.062v37.064l-17-1.062V7.53z" stroke="#8A9499" fill="#FFF"/><path d="M4.5 7.473v35.054l17 .944V6.53l-17 .944z" stroke="#8A9499" fill-opacity=".701" fill="#E9F2F5"/></g></svg>