<svg width="32" height="49" viewBox="0 0 32 49" xmlns="http://www.w3.org/2000/svg"><title>Group</title><g fill="none" fill-rule="evenodd"><path stroke="#8A9499" fill="#FFF" d="M.5 3.5h31v43H.5z"/><path stroke="#8A9499" stroke-width="2" fill="#FFF" d="M3 48h25v1H3z"/><path d="M.5 3.5h31V1a.5.5 0 0 0-.5-.5H1a.5.5 0 0 0-.5.5v2.5z" stroke="#8A9499" fill="#FFF"/><path d="M5 13h22v2H5v-2zm0 7h22v2H5v-2zm0 7h22v2H5v-2zm0 7h22v2H5v-2z" fill="#8A9499"/><path d="M4.5 7.5v35h23v-35h-23z" stroke="#8A9499" fill-opacity=".701" fill="#E9F2F5"/></g></svg>