<svg xmlns="http://www.w3.org/2000/svg" width="87.682" height="38.04"><path d="M9.48 8.75v-1.3H1.81v22.66h1.58V8.75zm7.19 21.36h1.43V14.14h-1.3l-5.2 11.22c-.31.7-.63 1.39-.85 2.12h-.1c.06-.69.13-1.39.13-2.25V14.14h-1.4v15.97h1.27l5.2-11.25c.35-.7.63-1.36.86-2.06h.09c-.06.67-.13 1.36-.13 2.19zm11.76 0h1.46V14.14h-8.21v15.97h1.49V15.34h5.26zm5.65-7.73h7.23c.5-5.67-1.27-8.56-4.03-8.56-2.7 0-4.66 3.08-4.66 8.31s1.55 8.3 4.94 8.3c2.54 0 3.75-1.8 3.75-1.8l-.48-1.21s-1.11 1.71-3.23 1.71c-2.32 0-3.46-2.38-3.52-6.75zm3.2-7.32c1.62 0 2.88 1.9 2.63 6.15h-5.8c.13-4 1.49-6.15 3.17-6.15zm11.28 14.17c-1.42 0-2.31-.64-2.94-1.94v-8.94c.69-1.71 1.9-3.23 3.32-3.23 1.84 0 2.98 2.47 2.98 6.66 0 5.04-1.33 7.45-3.36 7.45zm-.09 1.17c2.98 0 4.94-2.88 4.94-8.75 0-4.63-1.55-7.83-4.21-7.83-1.78 0-2.95 1.43-3.65 2.95l-.12-2.63h-1.3v20.92h1.49v-6.05c.6.79 1.64 1.39 2.85 1.39zm9.29-8.56l5.54 8.27h1.65l-5.64-8.55 5.26-7.42h-1.46l-5.35 7.51v-7.51h-1.49v15.97h1.49zm9.35 13.35c2.25 0 3.2-2.1 3.74-4.25l4.09-16.8h-1.33l-2.48 10.43a65.24 65.24 0 0 0-.76 3.61h-.09c-.16-1.23-.38-2.41-.67-3.61l-2.53-10.43h-1.49l3.96 16.42-.13.47c-.47 1.78-1.23 2.83-2.31 2.83-.41 0-.73-.07-.98-.13l.15 1.39c.23.04.48.07.83.07zm14.64-4.76c2.86 0 4.98-3.17 4.98-8.43 0-5.2-1.87-7.99-4.66-7.99-1.9 0-3.17 1.21-3.96 3.36.44-5.83 1.87-8.27 5.01-8.37 1.46-.03 2.41-.28 2.98-.88l-.38-1.24c-.61.47-1.21.76-2.63.79-4.82.13-6.41 4.15-6.41 13.41 0 6.47 2.16 9.35 5.07 9.35zm-.03-1.2c-2.03 0-3.55-2.54-3.55-7.8v-2.28c.67-2.38 2.19-3.93 3.81-3.93 1.87 0 3.26 2.37 3.26 6.91 0 4.4-1.52 7.1-3.52 7.1z"/></svg>