<svg xmlns="http://www.w3.org/2000/svg" width="40" height="40" viewBox="0 0 16 20"><g fill="none" fill-rule="evenodd" transform="translate(1 1)"><path stroke="#FFF" stroke-width="2" d="M2.564 8h8.872c.892 0 1.215.093 1.54.267.327.174.583.43.757.756.174.326.267.65.267 1.54v4.873c0 .892-.093 1.215-.267 1.54a1.81 1.81 0 0 1-.756.757c-.326.174-.65.267-1.54.267H2.563c-.892 0-1.215-.093-1.54-.267a1.817 1.817 0 0 1-.757-.756C.093 16.65 0 16.327 0 15.437v-4.873c0-.892.093-1.215.267-1.54a1.81 1.81 0 0 1 .756-.757c.326-.174.65-.267 1.54-.267zM7 0a4 4 0 0 1 4 4v4H3V4a4 4 0 0 1 4-4z"/><circle cx="7" cy="13" r="2" fill="#FFF"/></g></svg>