<svg width="18" height="33" xmlns="http://www.w3.org/2000/svg"><path d="M17.91 9.045c0 1.44-.225 2.655-.675 3.645-.45.99-1.012 1.837-1.688 2.543a12.46 12.46 0 0 1-2.182 1.822c-.78.51-1.507.99-2.183 1.44-.675.45-1.237.915-1.687 1.395-.45.48-.675 1.05-.675 1.71v.99H2.925v-.945c0-1.29.21-2.355.63-3.195.42-.84.937-1.56 1.552-2.16a10.68 10.68 0 0 1 2.026-1.552c.735-.436 1.41-.9 2.025-1.396a7.297 7.297 0 0 0 1.552-1.71c.42-.645.63-1.477.63-2.497 0-.54-.075-1.057-.225-1.553a3.153 3.153 0 0 0-.81-1.327c-.39-.39-.937-.705-1.643-.945-.705-.24-1.612-.36-2.722-.36-1.35 0-2.52.157-3.51.473-.99.315-1.8.682-2.43 1.102V1.53C.69 1.17 1.62.825 2.79.495 3.96.165 5.4 0 7.11 0c1.8 0 3.375.217 4.725.652 1.35.436 2.475 1.05 3.375 1.846a7.547 7.547 0 0 1 2.025 2.857c.45 1.11.675 2.34.675 3.69zM5.985 32.985a4.048 4.048 0 0 1-2.903-1.192 4.155 4.155 0 0 1-.877-1.283c-.21-.48-.315-.99-.315-1.53s.105-1.05.315-1.53c.21-.48.502-.9.877-1.26.376-.36.81-.645 1.306-.855a4.048 4.048 0 0 1 1.597-.315c.57 0 1.11.105 1.62.315.51.21.952.495 1.327.855.376.36.668.78.878 1.26.21.48.315.99.315 1.53s-.105 1.05-.315 1.53c-.21.48-.502.907-.878 1.282a4.02 4.02 0 0 1-1.327.878c-.51.21-1.05.315-1.62.315z" fill="#2E93FD" fill-rule="evenodd"/></svg>