<svg viewBox="0 0 20 20" xmlns="http://www.w3.org/2000/svg"><title>icon/question_muted</title><g fill="none" fill-rule="evenodd"><circle stroke="#C7D2D9" stroke-width="2" cx="10" cy="10" r="9"/><path d="M8.998 12.966h1.891V14.8H8.998v-1.834zM6.68 8.396c.05-1.207.472-2.062 1.263-2.565.5-.322 1.113-.483 1.84-.483.957 0 1.752.229 2.384.686.633.457.95 1.134.95 2.031 0 .55-.138 1.014-.413 1.39-.161.229-.47.52-.927.876l-.45.35c-.246.19-.41.412-.49.666-.05.16-.078.41-.082.749H9.042c.026-.715.093-1.21.203-1.482.11-.273.394-.587.85-.943l.464-.362c.153-.114.275-.239.368-.374.17-.233.254-.489.254-.768 0-.322-.094-.615-.282-.88-.189-.264-.532-.396-1.032-.396-.49 0-.839.163-1.044.489a1.88 1.88 0 0 0-.308 1.015H6.681z" fill="#C7D2D9"/></g></svg>