<svg xmlns="http://www.w3.org/2000/svg" viewBox="0 0 256 256"><path d="M252.713 127.906c0 68.613-55.622 124.235-124.235 124.235S4.243 196.519 4.243 127.906 59.865 3.67 128.478 3.67s124.235 55.622 124.235 124.235z" fill="#2ca5e0"/><path d="M155.912 156.286c3.822-10.446 17.817-50.173 20.065-60.592 2.54-11.78-2.778-12.93-14.875-8.979-12.097 3.951-43.12 15.45-48.34 17.303-5.222 1.853-30.642 10.397-35.912 12.946-10.765 5.774-5.528 14.585 6.506 19.16 35.967 17.265 25.754 8.467 41.812 40.413 3.305 8.161 11.097 22.062 18.56 11.554 3.923-5.976 9.178-23.59 12.184-31.805z" fill="#fff"/></svg>