<svg xmlns="http://www.w3.org/2000/svg" viewBox="0 0 16 16"><g fill="none" fill-rule="evenodd"><path fill="#F00" d="M0 14.967h16v-11.9H0z"/><path d="M10 2.234c0-.571.448-1.034 1-1.034s1 .463 1 1.034v1.592c0 .57-.448 1.034-1 1.034s-1-.464-1-1.034V2.234zm-6 0C4 1.663 4.448 1.2 5 1.2s1 .463 1 1.034v1.592c0 .57-.448 1.034-1 1.034s-1-.464-1-1.034V2.234z" fill="#000"/><path d="M6.175 9.609c.538-.588.91-1.203.91-1.947 0-1.282-.816-1.866-1.98-1.866-.543 0-1.155.199-1.455.38v1.01c.5-.29.934-.51 1.456-.51.472 0 .928.309.928 1.038 0 .649-.5 1.274-.866 1.643a51.973 51.973 0 0 1-1.743 1.691v1.02h3.629v-.907H4.529c.573-.525 1.175-1.038 1.646-1.552m5.1-.848c.728-.175 1.063-.776 1.063-1.346 0-.89-.64-1.619-1.97-1.619-.61 0-1.044.095-1.453.305v.972c.41-.266.78-.416 1.379-.416.642 0 1.046.254 1.046.835 0 .67-.66.886-1.104.886H9.6v.878h.637c.731 0 1.3.28 1.3.954 0 .862-.716.997-1.234.997-.586 0-.932-.138-1.387-.433v1.018c.263.14.845.276 1.428.276 1.235 0 2.232-.62 2.232-1.807 0-.796-.555-1.365-1.3-1.5" fill="#F0EBDD"/></g></svg>