<svg id="Layer_1" xmlns="http://www.w3.org/2000/svg" width="80" height="80" viewBox="0 0 300 300"><style>.st0{fill:#03a603}.st1{fill:#f0ecdc}</style><title>connect_wiki_icon</title><g id="Test"><g id="connect_wiki_icon"><g id="Group-11" transform="translate(80 77)"><path class="st0" d="M132 58V16H90c0-8.8-7.2-16-16-16S58 7.2 58 16H16v42C7.2 58 0 65.2 0 74s7.2 16 16 16v42h42c0-8.8 7.2-16 16-16s16 7.2 16 16h42V90c-8.8 0-16-7.2-16-16s7.2-16 16-16z"/><path id="Rectangle-7" class="st1" d="M40 42h60v8H40z"/><path id="Rectangle-7_1_" class="st1" d="M40 63h60v8H40z"/><path id="Rectangle-7_2_" class="st1" d="M40 84h30v8H40z"/></g></g></g></svg>