<svg xmlns="http://www.w3.org/2000/svg" viewBox="0 0 845 1618"><g fill="none" fill-rule="evenodd" transform="translate(2)"><path fill="#EDEDED" d="M14.46 186.25c0-99.146 27.472-161.308 188.102-173.312 49.993-3.736 191.46-5.118 216.528-5.337l3.82-.031c25.068.25 166.535 1.632 216.528 5.368 160.63 12.004 188.103 74.166 188.103 173.313 5.974 341.63 4.876 621.535 4.876 621.535s3.488 278.11-2.486 619.74c0 82.474-33.965 154.759-190.493 175.107-61.284 7.967-199.944 7.304-218.323 7.178-17.416.121-157.006.825-218.553-7.176C46.034 1582.287 14.459 1510 12.069 1427.528c-5.974-341.63-2.486-619.741-2.486-619.741S8.485 527.88 14.459 186.25z"/><rect width="728" height="1288" x="59" y="154" fill="#414245" rx="1"/><circle cx="207" cy="92" r="20" fill="#949494"/><rect width="175" height="16" x="337" y="56" fill="#919193" rx="8"/></g></svg>