<svg xmlns="http://www.w3.org/2000/svg" xmlns:xlink="http://www.w3.org/1999/xlink" viewBox="0 0 871 1776"><defs><rect id="a" width="136" height="14" rx="7"/></defs><g fill="none" fill-rule="evenodd" transform="translate(5)"><path fill="#EDEDED" d="M0 1627V149C0 61.467 45.008 0 150 0h564c68.797 0 148 29.79 148 149v1478c0 49.577-14.154 149-151 149H150c-135.252 0-150-98.871-150-149z"/><path fill="#949494" d="M866 381.005c0-1.66-1.333-2.815-2.969-2.58l-1.062.15c-1.64.235-2.969 1.775-2.969 3.416v124.018c0 1.652 1.333 3.181 2.969 3.415l1.062.152c1.64.234 2.969-.925 2.969-2.581v-125.99z"/><path fill="#979797" fill-rule="nonzero" d="M431 1726c33.137 0 60-26.863 60-60s-26.863-60-60-60-60 26.863-60 60 26.863 60 60 60zm0 8c-37.555 0-68-30.445-68-68s30.445-68 68-68 68 30.445 68 68-30.445 68-68 68z"/><use fill="#949494" xlink:href="#a" transform="translate(363 110)"/><circle cx="432" cy="59" r="10" fill="#949494"/><circle cx="14.5" cy="14.5" r="14.5" fill="#949494" transform="translate(280 102)"/><path fill="#414245" d="M56 228h750v1334H56z"/></g></svg>